<svg viewBox="0 0 364 135" version="1.1" xmlns="http://www.w3.org/2000/svg" xmlns:xlink="http://www.w3.org/1999/xlink">
    <g id="Home" stroke="none" stroke-width="1" fill-rule="evenodd">
        <g id="Home-Copy" transform="translate(-217.000000, -471.000000)">
            <g id="Intro-Left" transform="translate(160.000000, 60.000000)">
                <g id="Logotype" transform="translate(57.000000, 411.000000)">
                    <path d="M20.952,91.448 L20.952,85.976 L3.672,85.976 L3.672,134 L10.152,134 L10.152,112.112 L19.944,112.112 L19.944,106.64 L10.152,106.64 L10.152,91.448 L20.952,91.448 Z M50.968,110.888 C50.968,114.704 50.824,118.448 50.248,122.192 C49.096,129.248 46.576,134.648 38.584,134.648 C34.48,134.648 30.952,132.92 28.936,129.248 C26.2,124.28 25.984,114.56 25.984,108.872 C25.984,103.256 26.128,96.344 28.576,91.232 C30.592,87.056 33.832,85.4 38.44,85.4 C42.472,85.4 45.784,86.984 47.872,90.512 C50.824,95.624 50.968,104.984 50.968,110.888 Z M44.2,109.088 C44.2,104.696 44.2,100.088 43.192,95.768 C42.616,93.176 41.32,91.232 38.44,91.232 C36.712,91.232 35.632,91.88 34.696,93.248 C32.752,95.984 32.752,103.832 32.752,107.216 C32.752,112.256 32.608,117.44 33.4,122.408 C33.904,125.36 34.912,128.672 38.512,128.672 C40.816,128.672 42.184,127.304 42.976,125.216 C44.272,121.544 44.2,113.264 44.2,109.088 Z M80.264,134 L73.64,134 L64.856,111.608 L64.856,134 L58.376,134 L58.376,85.976 L66.944,85.976 C69.536,85.976 71.768,86.12 73.928,87.776 C77.168,90.224 78.032,94.688 78.032,98.504 C78.032,103.184 76.736,109.376 71.12,110.672 L80.264,134 Z M64.856,91.304 L64.856,107.288 C66.512,107.288 68.24,107.216 69.536,106.136 C71.336,104.624 71.768,101.888 71.768,99.656 C71.768,97.712 71.48,95.048 70.472,93.32 C69.392,91.52 67.808,91.304 65.936,91.304 L64.856,91.304 Z M103.44,91.664 L103.44,85.976 L82.416,85.976 L82.416,91.664 L89.76,91.664 L89.76,134 L96.096,134 L96.096,91.664 L103.44,91.664 Z M145.76,85.976 L136.328,134 L131.216,134 L121.928,85.976 L128.336,85.976 C129.848,95.264 131.36,104.552 132.728,113.912 C133.16,116.648 133.592,119.384 133.88,122.12 C134.024,119.528 134.528,116.936 134.96,114.344 C135.536,110.816 135.968,107.216 136.616,103.688 L139.712,85.976 L145.76,85.976 Z M171.312,134 L164.904,134 L163.104,124.64 L153.6,124.64 L151.8,134 L145.536,134 L155.976,85.976 L161.088,85.976 L171.312,134 Z M154.536,119.672 L162.168,119.672 C160.728,111.608 159.288,103.472 158.424,95.336 C157.632,103.544 156.048,111.608 154.536,119.672 Z M198.448,134 L198.448,85.976 L191.968,85.976 L191.968,104.192 C191.968,110.312 192.688,116.432 193.48,122.48 C190.528,110.024 186.208,98.072 182.104,85.976 L176.056,85.976 L176.056,134 L182.464,134 C182.32,124.136 182.248,114.2 181.672,104.336 C181.528,101.888 181.456,99.44 181.096,97.064 C181.744,99.44 182.104,101.888 182.68,104.264 C183.184,106.28 183.832,108.224 184.48,110.168 C187,118.16 189.736,126.08 192.4,134 L198.448,134 Z M225.512,127.376 C224.216,128.024 223.136,128.312 221.696,128.312 C213.056,128.312 212.552,116.72 212.552,110.456 C212.552,104.336 212.624,91.376 221.336,91.376 C222.848,91.376 224.216,91.88 225.512,92.6 L225.512,86.768 C223.568,85.688 222.344,85.328 220.112,85.328 C206.936,85.328 205.712,100.952 205.712,110.816 C205.712,120.68 207.44,134.648 220.256,134.648 C222.488,134.648 223.568,134.432 225.512,133.28 L225.512,127.376 Z M255.528,110.888 C255.528,114.704 255.384,118.448 254.808,122.192 C253.656,129.248 251.136,134.648 243.144,134.648 C239.04,134.648 235.512,132.92 233.496,129.248 C230.76,124.28 230.544,114.56 230.544,108.872 C230.544,103.256 230.688,96.344 233.136,91.232 C235.152,87.056 238.392,85.4 243,85.4 C247.032,85.4 250.344,86.984 252.432,90.512 C255.384,95.624 255.528,104.984 255.528,110.888 Z M248.76,109.088 C248.76,104.696 248.76,100.088 247.752,95.768 C247.176,93.176 245.88,91.232 243,91.232 C241.272,91.232 240.192,91.88 239.256,93.248 C237.312,95.984 237.312,103.832 237.312,107.216 C237.312,112.256 237.168,117.44 237.96,122.408 C238.464,125.36 239.472,128.672 243.072,128.672 C245.376,128.672 246.744,127.304 247.536,125.216 C248.832,121.544 248.76,113.264 248.76,109.088 Z M285.04,85.976 L278.704,85.976 L278.704,121.256 C278.704,124.856 278.848,128.528 274.096,128.528 C269.56,128.528 269.272,124.784 269.272,121.256 L269.272,85.976 L262.936,85.976 L262.936,121.472 C262.936,129.176 265.096,134.648 273.88,134.648 C283.24,134.648 285.04,129.536 285.04,121.256 L285.04,85.976 Z M313.4,85.976 L307.352,85.976 L304.256,103.688 C303.608,107.216 303.176,110.816 302.6,114.344 C302.168,116.936 301.664,119.528 301.52,122.12 C301.232,119.384 300.8,116.648 300.368,113.912 C299,104.552 297.488,95.264 295.976,85.976 L289.568,85.976 L298.856,134 L303.968,134 L313.4,85.976 Z M335.136,134 L335.136,128.528 L324.408,128.528 L324.408,112.184 L333.912,112.184 L333.912,106.712 L324.408,106.712 L324.408,91.448 L335.136,91.448 L335.136,85.976 L317.928,85.976 L317.928,134 L335.136,134 Z M363.928,134 L357.304,134 L348.52,111.608 L348.52,134 L342.04,134 L342.04,85.976 L350.608,85.976 C353.2,85.976 355.432,86.12 357.592,87.776 C360.832,90.224 361.696,94.688 361.696,98.504 C361.696,103.184 360.4,109.376 354.784,110.672 L363.928,134 Z M348.52,91.304 L348.52,107.288 C350.176,107.288 351.904,107.216 353.2,106.136 C355,104.624 355.432,101.888 355.432,99.656 C355.432,97.712 355.144,95.048 354.136,93.32 C353.056,91.52 351.472,91.304 349.6,91.304 L348.52,91.304 Z" id="FORT-VANCOUVER"></path>
                    <g id="Page-1">
                        <path d="M250,18.5868952 L243.684604,18.5868952 L243.684604,10 L230.277363,10 L230.277363,18.5868952 L225,18.5868952 L225,28.2256421 L230.277363,28.2256421 L230.277363,56.6052019 C230.277363,56.6052019 230.191206,67.4495988 250,65.8363294 L250,55.0812001 C250,55.0812001 243.771799,55.620032 243.771799,54.0960302 L243.684604,28.2256421 L250,28.2256421 L250,18.5868952 Z" id="Fill-14"></path>
                        <polygon id="Fill-13" points="207 64 219 64 219 18 207 18"></polygon>
                        <polygon id="Fill-11" points="207 12 219 12 219 2 207 2"></polygon>
                        <polygon id="Fill-9" points="175 66 189.588118 66 189.588118 39.1199575 200.321621 39.1199575 200.321621 26.9447983 189.588118 26.9447983 189.588118 14.8078556 204 14.8078556 204 2 175 2"></polygon>
                        <path d="M158.347817,38.1070145 C155.069802,36.5949687 152.903053,35.4428324 151.848663,34.6516704 C150.792085,33.8605085 150.159889,33.1321709 149.947698,32.4687874 C149.737695,31.8064688 149.630506,30.7640091 149.630506,29.3456675 C149.630506,28.2968188 149.842697,27.5131106 150.26489,26.9892187 C150.688177,26.4653268 151.31928,26.202316 152.164761,26.202316 C153.207119,26.202316 153.859004,26.487688 154.11932,27.0584321 C154.379636,27.6291761 154.511982,28.9846932 154.511982,31.1249834 L154.511982,33.6400905 L167.847171,33.6400905 L167.847171,30.9503527 C167.847171,28.6247837 167.713732,26.9136164 167.454509,25.8189804 C167.193099,24.7254093 166.449339,23.5381339 165.219946,22.2582191 C163.990554,20.9793691 162.227404,19.9486224 159.93159,19.1691734 C157.633589,18.3897245 154.84558,18 151.568659,18 C148.265487,18 145.367008,18.475975 142.872129,19.4311194 C140.37725,20.3841342 138.606443,21.7417809 137.565178,23.4976707 C136.520632,25.2546253 136,27.9837615 136,31.6850792 C136,34.2906961 136.483444,36.5417277 137.452521,38.4392387 C138.420503,40.3367496 141.115541,42.4482896 145.536542,44.7759883 C150.798648,47.5221616 153.71572,49.1747637 154.28776,49.7316651 C154.832455,50.2906961 155.10699,51.6760282 155.10699,53.8865966 C155.10699,55.4923466 154.895893,56.5454545 154.4737,57.0469852 C154.050413,57.5463863 153.306652,57.7966192 152.239137,57.7966192 C151.245998,57.7966192 150.580988,57.4249967 150.246296,56.6785572 C149.91051,55.9353121 149.744258,54.3189139 149.744258,51.8282976 L149.744258,48.8947158 L136.409068,48.8947158 L136.409068,51.1287102 C136.409068,54.9929456 136.918763,57.8786104 137.935965,59.7857048 C138.954261,61.6959936 140.823506,63.2080394 143.542607,64.3261014 C146.260614,65.4420338 149.532067,66 153.356965,66 C156.806702,66 159.756587,65.482497 162.201153,64.447491 C164.649001,63.412485 166.392463,61.9334487 167.437009,60.0135765 C168.479368,58.0947691 169,55.2485026 169,51.4790363 C169,48.1046187 168.31749,45.5320112 166.951377,43.7633435 C165.585264,41.9936111 162.718505,40.1099428 158.347817,38.1070145" id="Fill-7"></path>
                        <path d="M122.34817,38.1070145 C119.070264,36.5949687 116.903586,35.4428324 115.849231,34.6516704 C114.792689,33.8605085 114.160513,33.1321709 113.94833,32.4687874 C113.73724,31.8064688 113.632242,30.7640091 113.632242,29.3456675 C113.632242,28.2968188 113.843332,27.5131106 114.265511,26.9892187 C114.688784,26.4653268 115.319866,26.202316 116.165319,26.202316 C117.207643,26.202316 117.859506,26.487688 118.119813,27.0584321 C118.381214,27.6291761 118.512462,28.9846932 118.512462,31.1249834 L118.512462,33.6400905 L131.847209,33.6400905 L131.847209,30.9503527 C131.847209,28.6247837 131.713774,26.9136164 131.454561,25.8189804 C131.193159,24.7254093 130.449423,23.5381339 129.220072,22.2582191 C127.99072,20.9793691 126.227628,19.9486224 123.93189,19.1691734 C121.632872,18.3897245 118.846049,18 115.569236,18 C112.266174,18 109.367791,18.475975 106.872995,19.4311194 C104.377105,20.3841342 102.607451,21.7417809 101.565127,23.4976707 C100.521709,25.2546253 100,27.9837615 100,31.6850792 C100,34.2906961 100.484522,36.5417277 101.453566,38.4392387 C102.421517,40.3367496 105.115372,42.4482896 109.536226,44.7759883 C114.799251,47.5221616 117.716227,49.1747637 118.288247,49.7316651 C118.834018,50.2906961 119.107451,51.6760282 119.107451,53.8865966 C119.107451,55.4923466 118.896361,56.5454545 118.474181,57.0469852 C118.050908,57.5463863 117.307172,57.7966192 116.239692,57.7966192 C115.246586,57.7966192 114.581599,57.4249967 114.246918,56.6785572 C113.912237,55.9353121 113.743802,54.3189139 113.743802,51.8282976 L113.743802,48.8947158 L100.409055,48.8947158 L100.409055,51.1287102 C100.409055,54.9929456 100.918733,57.8786104 101.936995,59.7857048 C102.954163,61.6959936 104.82444,63.2080394 107.543451,64.3261014 C110.261368,65.4420338 113.532712,66 117.35639,66 C120.807106,66 123.756894,65.482497 126.201379,64.447491 C128.649145,63.412485 130.392549,61.9334487 131.437061,60.0135765 C132.479385,58.0947691 133,55.2485026 133,51.4790363 C133,48.1046187 132.317513,45.5320112 130.951445,43.7633435 C129.585377,41.9936111 126.718713,40.1099428 122.34817,38.1070145" id="Fill-5"></path>
                        <path d="M82.6017009,52.9790758 C82.6017009,54.9804343 82.4656272,56.2845249 82.1924167,56.890296 C81.9181432,57.4950154 81.354713,57.7968493 80.4989369,57.7968493 C79.6676116,57.7968493 79.1094968,57.4666199 78.8245925,56.8019544 C78.5407512,56.1393922 78.3961729,54.713306 78.3961729,52.5247475 L78.3961729,31.6151268 C78.3961729,29.2414715 78.5407512,27.745974 78.8245925,27.129686 C79.1094968,26.5123464 79.6793055,26.2031507 80.5361446,26.2031507 C81.3908575,26.2031507 81.9479093,26.5123464 82.2094259,27.129686 C82.4709426,27.745974 82.6017009,29.2414715 82.6017009,31.6151268 L82.6017009,52.9790758 Z M93.7214741,23.0964703 C92.4606662,21.5841458 90.6736357,20.3557766 88.3582566,19.413466 C86.0407512,18.4711553 83.2661233,18 80.0364989,18 C76.1881644,18 73.02764,18.7330251 70.5570517,20.2001271 C68.0864635,21.6661773 66.3749114,23.6086414 65.4255847,26.0296225 C64.4751949,28.4506036 64,31.8128437 64,36.1184461 L64,47.9867225 C64,51.920028 64.2615167,54.8700072 64.78455,56.83666 C65.3054571,58.8033128 66.1793055,60.4786486 67.4039688,61.8626673 C68.626506,63.2487895 70.3433735,64.2847002 72.5524451,64.9703994 C74.7625797,65.6571504 77.45854,66 80.6435152,66 C83.4936215,66 86.0173636,65.5993076 88.2158044,64.7958195 C90.4121191,63.9933831 92.2119064,62.7492386 93.6141035,61.0612826 C95.0152374,59.3733266 95.9305457,57.5581166 96.3579022,55.6156526 C96.7852587,53.6710852 97,50.6169891 97,46.4512609 L97,35.1056725 C97,31.8254639 96.7671864,29.3813457 96.3047484,27.7743695 C95.8412473,26.1694967 94.9801559,24.6098464 93.7214741,23.0964703 L93.7214741,23.0964703 Z" id="Fill-3"></path>
                        <path d="M50.8264523,22.8171767 L50.8264523,18.0438666 L37,18.0438666 L37,66 L50.8264523,66 L50.6867696,35.9568521 C53.8984048,28.8283674 62,28.9670954 62,28.9670954 L62,18.0438666 C54.1788365,17.4644104 50.8264523,22.8171767 50.8264523,22.8171767" id="Fill-15"></path>
                        <path d="M26.4664896,2.8123252 C29.1410385,4.68897676 30.898416,7.02710001 31.739691,9.82669496 C32.579897,12.6273508 33,16.9821584 33,22.8953612 L33,25.8869708 L19.037187,26.1521844 L19.037187,17.90298 C19.037187,14.7023821 18.8789803,14.5230977 18.5807392,13.7295786 C18.2824981,12.9349986 17.625085,12.538239 16.6074309,12.538239 C15.4572252,12.538239 14.7281915,13.0209278 14.4181918,13.9852445 C14.1081922,14.950622 13.962813,15.2179574 13.962813,18.4270421 L13.962813,47.8477192 C13.962813,50.925258 14.1167439,52.1834314 14.4267435,53.1222876 C14.7356743,54.0622046 15.432639,54.5300415 16.5155,54.5300415 C17.5556023,54.5300415 18.2354637,54.0600829 18.556153,53.119105 C18.8757734,52.1781271 19.037187,50.7183914 19.037187,47.2419713 L19.037187,40.3856688 L33,40.2085061 L33,41.747806 C33,48.3038866 32.6076901,52.9546726 31.8230702,55.6969814 C31.0373814,58.440351 29.3013832,60.8421256 26.6150756,62.9054875 C23.9287681,64.9688495 20.6171164,66 16.6822584,66 C12.5913317,66 9.21981795,65.1258559 6.56664831,63.3796895 C3.91347867,61.6314013 2.15503223,59.213714 1.29344692,56.1213232 C0.430792653,53.0310541 0,48.3823898 0,42.1742695 L0,23.6697849 C0,19.1049282 0.132551586,15.6826116 0.397654757,13.398592 C0.662757928,11.1177548 1.45379158,8.92072524 2.76968676,6.80750313 C4.08451297,4.69322018 5.90816624,3.03086122 8.24171553,1.81830456 C10.5731269,0.606808757 13.2551586,0 16.2846037,0 C20.3969097,0 23.7908717,0.937795352 26.4664896,2.8123252 Z" id="Fill-1"></path>
                    </g>
                </g>
            </g>
        </g>
    </g>
</svg>