<svg viewBox="0 0 100 130" version="1.1" xmlns="http://www.w3.org/2000/svg" xmlns:xlink="http://www.w3.org/1999/xlink">
    <g id="Home" stroke="none" stroke-width="0" fill-rule="evenodd">
        <g id="Home-Copy">
            <g id="CFV-LOGO">
                <polygon id="Rectangle-2" points="0 0 100 0 100 100.017591 50.5305487 129.166667 0 100.017591"></polygon>
                <path d="M76.6405106,54.3143153 L64.4747213,54.3143153 L51.1980308,75.9378207 L37.9213404,54.3143153 L25.7548572,54.3143153 L44.3993994,84.6799801 C31.3718117,81.5969666 21.6581926,70.0242082 21.6581926,56.2501768 C21.6581926,40.6832503 34.0612887,27.921613 49.6368019,27.0576578 L39.749019,32.9452764 L30.8361368,38.244612 L51.1980308,71.4080414 L57.2812724,61.5009449 L51.5789707,52.2135976 L60.6424247,46.8171269 L55.8046968,38.9211375 L46.734304,44.3223965 L44.5936857,40.8371616 L58.2575609,32.7003865 L54.9047351,27.2286703 C62.9717782,28.1911287 70.0486553,32.3549412 74.7871584,38.3937349 L83.75,33.0567766 C76.4663468,23.1763579 64.6585993,16.7469717 51.3208475,16.7469717 C29.1902546,16.7469717 11.25,34.4324012 11.25,56.2501768 C11.25,78.0255414 29.1229483,95.6829248 51.1959492,95.7499617 C64.6585993,95.753382 76.4663468,89.3233117 83.75,79.4428931 L74.7871584,74.1052507 C70.6564938,79.3703838 64.7488037,83.2085885 57.9564172,84.7456489 L76.6405106,54.3143153 Z" id="Fill-1" fill="#FFFFFF"></path>
            </g>
        </g>
    </g>
</svg>