<svg viewBox="0 0 80 90" version="1.1" xmlns="http://www.w3.org/2000/svg" xmlns:xlink="http://www.w3.org/1999/xlink">
    <g id="Home" stroke="none" stroke-width="1" fill-rule="evenodd">
        <g id="Home-Copy-2" transform="translate(-1350.000000, -397.000000)">
            <g id="triib" transform="translate(1350.000000, 397.000000)">
                <path d="M59.3522691,10 L45.2491865,18.0188889 L65.897328,29.7552286 L65.897328,36.4343582 L40,51.1765269 L40.0151924,67.1292151 L65.897328,52.3954751 L65.897328,75 L77.9584672,68.1422626 C79.2227229,67.4234163 80,66.1021198 80,64.6728559 L80,24.0373703 C80,22.607705 79.2219017,21.2856058 77.9572354,20.5671609 L59.3522691,10 Z" id="Fill-1"></path>
                <path d="M13.869415,53.6726955 L13.869415,30.2310537 L19.5952245,26.8878896 L45.1125238,41.3909194 L58.8952449,33.3267851 L33.3927959,18.8322179 L52.9811973,7.39509851 L41.1262109,0.623337313 C39.884,-0.086319403 38.360034,-0.0790656716 37.1238435,0.642277612 L1.99676871,21.1518 C0.760578231,21.8735463 7.58941521e-19,23.2009791 0.000802721088,24.6368149 L0.00802721088,45.7548448 L13.869415,53.6726955 Z" id="Fill-3"></path>
                <path d="M39.5356169,74.3529737 L33.7407295,70.9902674 L33.4848944,41.0760648 L19.5380418,33 L19.7934728,62.8965926 L0,51.4103152 L0.092553299,65.3271932 C0.102253208,66.7855536 0.876629282,68.1284246 2.12549257,68.8533047 L37.6336264,89.4583274 C38.883298,90.183617 40.4191169,90.1803407 41.6655552,89.4497271 L60,78.7055304 L59.8912802,62.4334065 L39.5356169,74.3529737 Z" id="Fill-6"></path>
            </g>
        </g>
    </g>
</svg>