<?xml version="1.0" encoding="UTF-8"?>
<svg width="300px" height="300px" xmlns="http://www.w3.org/2000/svg" viewBox="0 0 300 300">
  <defs>
    <style>.a{fill:#fff;}</style>
  </defs>
  <title>ThankYou-Artboard 1</title>
  <path class="a" d="M174.18,257.79l69.67-115.11H198.48L149,224.47,99.46,142.68H54.09l69.53,114.87a110.6,110.6,0,0,1,19.53-218L106.28,61.85h0L73,81.89,149,207.34l22.69-37.48-21.27-35.13,33.8-20.41-18-29.87-33.82,20.43-8-13.18,51-30.78-12.5-20.7a110.56,110.56,0,0,1,74.14,42.24l33.43-20.19A149.42,149.42,0,1,0,149,299.42h.47a149.21,149.21,0,0,0,120.94-61.7l-33.43-20.19A110.72,110.72,0,0,1,174.18,257.79Z"></path>
</svg>
