<?xml version="1.0" encoding="UTF-8"?><!DOCTYPE svg PUBLIC "-//W3C//DTD SVG 1.1//EN" "http://www.w3.org/Graphics/SVG/1.1/DTD/svg11.dtd"><svg xmlns="http://www.w3.org/2000/svg"><symbol id="hero-logo" viewBox="0 0 364 135"><g fill-rule="evenodd"><path d="M20.952 91.448v-5.472H3.672V134h6.48v-21.888h9.792v-5.472h-9.792V91.448h10.8zm30.016 19.44c0 3.816-.144 7.56-.72 11.304-1.152 7.056-3.672 12.456-11.664 12.456-4.104 0-7.632-1.728-9.648-5.4-2.736-4.968-2.952-14.688-2.952-20.376 0-5.616.144-12.528 2.592-17.64 2.016-4.176 5.256-5.832 9.864-5.832 4.032 0 7.344 1.584 9.432 5.112 2.952 5.112 3.096 14.472 3.096 20.376zm-6.768-1.8c0-4.392 0-9-1.008-13.32-.576-2.592-1.872-4.536-4.752-4.536-1.728 0-2.808.648-3.744 2.016-1.944 2.736-1.944 10.584-1.944 13.968 0 5.04-.144 10.224.648 15.192.504 2.952 1.512 6.264 5.112 6.264 2.304 0 3.672-1.368 4.464-3.456 1.296-3.672 1.224-11.952 1.224-16.128zM80.264 134H73.64l-8.784-22.392V134h-6.48V85.976h8.568c2.592 0 4.824.144 6.984 1.8 3.24 2.448 4.104 6.912 4.104 10.728 0 4.68-1.296 10.872-6.912 12.168L80.264 134zM64.856 91.304v15.984c1.656 0 3.384-.072 4.68-1.152 1.8-1.512 2.232-4.248 2.232-6.48 0-1.944-.288-4.608-1.296-6.336-1.08-1.8-2.664-2.016-4.536-2.016h-1.08zm38.584.36v-5.688H82.416v5.688h7.344V134h6.336V91.664h7.344zm42.32-5.688L136.328 134h-5.112l-9.288-48.024h6.408c1.512 9.288 3.024 18.576 4.392 27.936.432 2.736.864 5.472 1.152 8.208.144-2.592.648-5.184 1.08-7.776.576-3.528 1.008-7.128 1.656-10.656l3.096-17.712h6.048zM171.312 134h-6.408l-1.8-9.36H153.6l-1.8 9.36h-6.264l10.44-48.024h5.112L171.312 134zm-16.776-14.328h7.632c-1.44-8.064-2.88-16.2-3.744-24.336-.792 8.208-2.376 16.272-3.888 24.336zM198.448 134V85.976h-6.48v18.216c0 6.12.72 12.24 1.512 18.288-2.952-12.456-7.272-24.408-11.376-36.504h-6.048V134h6.408c-.144-9.864-.216-19.8-.792-29.664-.144-2.448-.216-4.896-.576-7.272.648 2.376 1.008 4.824 1.584 7.2.504 2.016 1.152 3.96 1.8 5.904 2.52 7.992 5.256 15.912 7.92 23.832h6.048zm27.064-6.624c-1.296.648-2.376.936-3.816.936-8.64 0-9.144-11.592-9.144-17.856 0-6.12.072-19.08 8.784-19.08 1.512 0 2.88.504 4.176 1.224v-5.832c-1.944-1.08-3.168-1.44-5.4-1.44-13.176 0-14.4 15.624-14.4 25.488 0 9.864 1.728 23.832 14.544 23.832 2.232 0 3.312-.216 5.256-1.368v-5.904zm30.016-16.488c0 3.816-.144 7.56-.72 11.304-1.152 7.056-3.672 12.456-11.664 12.456-4.104 0-7.632-1.728-9.648-5.4-2.736-4.968-2.952-14.688-2.952-20.376 0-5.616.144-12.528 2.592-17.64 2.016-4.176 5.256-5.832 9.864-5.832 4.032 0 7.344 1.584 9.432 5.112 2.952 5.112 3.096 14.472 3.096 20.376zm-6.768-1.8c0-4.392 0-9-1.008-13.32-.576-2.592-1.872-4.536-4.752-4.536-1.728 0-2.808.648-3.744 2.016-1.944 2.736-1.944 10.584-1.944 13.968 0 5.04-.144 10.224.648 15.192.504 2.952 1.512 6.264 5.112 6.264 2.304 0 3.672-1.368 4.464-3.456 1.296-3.672 1.224-11.952 1.224-16.128zm36.28-23.112h-6.336v35.28c0 3.6.144 7.272-4.608 7.272-4.536 0-4.824-3.744-4.824-7.272v-35.28h-6.336v35.496c0 7.704 2.16 13.176 10.944 13.176 9.36 0 11.16-5.112 11.16-13.392v-35.28zm28.36 0h-6.048l-3.096 17.712c-.648 3.528-1.08 7.128-1.656 10.656-.432 2.592-.936 5.184-1.08 7.776-.288-2.736-.72-5.472-1.152-8.208-1.368-9.36-2.88-18.648-4.392-27.936h-6.408L298.856 134h5.112l9.432-48.024zM335.136 134v-5.472h-10.728v-16.344h9.504v-5.472h-9.504V91.448h10.728v-5.472h-17.208V134h17.208zm28.792 0h-6.624l-8.784-22.392V134h-6.48V85.976h8.568c2.592 0 4.824.144 6.984 1.8 3.24 2.448 4.104 6.912 4.104 10.728 0 4.68-1.296 10.872-6.912 12.168L363.928 134zM348.52 91.304v15.984c1.656 0 3.384-.072 4.68-1.152 1.8-1.512 2.232-4.248 2.232-6.48 0-1.944-.288-4.608-1.296-6.336-1.08-1.8-2.664-2.016-4.536-2.016h-1.08zM250 18.587h-6.315V10h-13.408v8.587H225v9.639h5.277v28.38s-.086 10.844 19.723 9.23V55.081s-6.228.539-6.228-.985l-.087-25.87H250v-9.64zM207 64h12V18h-12zM207 12h12V2h-12zM175 66h14.588V39.12h10.734V26.945h-10.734V14.808H204V2h-29zM158.348 38.107c-3.278-1.512-5.445-2.664-6.5-3.455-1.056-.791-1.688-1.52-1.9-2.183-.21-.663-.317-1.705-.317-3.123 0-1.05.212-1.833.634-2.357.423-.524 1.054-.787 1.9-.787 1.042 0 1.694.286 1.954.856.26.571.393 1.927.393 4.067v2.515h13.335v-2.69c0-2.325-.133-4.036-.392-5.131-.262-1.094-1.006-2.28-2.235-3.56-1.23-1.28-2.993-2.31-5.288-3.09-2.298-.78-5.086-1.169-8.363-1.169-3.304 0-6.202.476-8.697 1.431-2.495.953-4.266 2.31-5.307 4.067-1.044 1.757-1.565 4.486-1.565 8.187 0 2.606.483 4.857 1.453 6.754.968 1.898 3.663 4.01 8.084 6.337 5.262 2.746 8.179 4.399 8.75 4.956.545.559.82 1.944.82 4.155 0 1.605-.211 2.658-.633 3.16-.424.5-1.167.75-2.235.75-.993 0-1.658-.372-1.993-1.118-.335-.744-.502-2.36-.502-4.85v-2.934H136.41v2.234c0 3.864.51 6.75 1.527 8.657 1.018 1.91 2.888 3.422 5.607 4.54 2.718 1.116 5.99 1.674 9.814 1.674 3.45 0 6.4-.518 8.844-1.553 2.448-1.035 4.191-2.514 5.236-4.433 1.042-1.92 1.563-4.765 1.563-8.535 0-3.374-.683-5.947-2.049-7.716-1.366-1.77-4.232-3.653-8.603-5.656M122.348 38.107c-3.278-1.512-5.444-2.664-6.499-3.455-1.056-.791-1.688-1.52-1.9-2.183-.212-.663-.317-1.705-.317-3.123 0-1.05.211-1.833.634-2.357.423-.524 1.054-.787 1.9-.787 1.042 0 1.694.286 1.954.856.261.571.392 1.927.392 4.067v2.515h13.335v-2.69c0-2.325-.133-4.036-.392-5.131-.262-1.094-1.006-2.28-2.235-3.56-1.23-1.28-2.992-2.31-5.288-3.09-2.3-.78-5.086-1.169-8.363-1.169-3.303 0-6.201.476-8.696 1.431-2.496.953-4.266 2.31-5.308 4.067-1.043 1.757-1.565 4.486-1.565 8.187 0 2.606.485 4.857 1.454 6.754.968 1.898 3.661 4.01 8.082 6.337 5.263 2.746 8.18 4.399 8.752 4.956.546.559.82 1.944.82 4.155 0 1.605-.212 2.658-.634 3.16-.423.5-1.167.75-2.234.75-.993 0-1.658-.372-1.993-1.118-.335-.744-.503-2.36-.503-4.85v-2.934h-13.335v2.234c0 3.864.51 6.75 1.528 8.657 1.017 1.91 2.887 3.422 5.606 4.54 2.718 1.116 5.99 1.674 9.813 1.674 3.451 0 6.4-.518 8.845-1.553 2.448-1.035 4.192-2.514 5.236-4.433 1.042-1.92 1.563-4.765 1.563-8.535 0-3.374-.682-5.947-2.049-7.716-1.366-1.77-4.232-3.653-8.603-5.656M82.602 52.98c0 2-.136 3.305-.41 3.91-.274.605-.837.907-1.693.907-.831 0-1.39-.33-1.674-.995-.284-.663-.429-2.089-.429-4.277v-20.91c0-2.374.145-3.869.429-4.485.284-.618.854-.927 1.711-.927.855 0 1.412.31 1.673.927.262.616.393 2.111.393 4.485V52.98zm11.12-29.884c-1.261-1.512-3.048-2.74-5.364-3.683C86.041 18.471 83.266 18 80.036 18c-3.848 0-7.008.733-9.479 2.2-2.47 1.466-4.182 3.409-5.131 5.83C64.476 28.45 64 31.813 64 36.118v11.869c0 3.933.262 6.883.785 8.85.52 1.966 1.394 3.642 2.619 5.026 1.223 1.386 2.94 2.422 5.148 3.107 2.21.687 4.907 1.03 8.092 1.03 2.85 0 5.373-.4 7.572-1.204 2.196-.803 3.996-2.047 5.398-3.735 1.401-1.688 2.317-3.503 2.744-5.445.427-1.945.642-4.999.642-9.165V35.106c0-3.28-.233-5.725-.695-7.332-.464-1.605-1.325-3.164-2.584-4.678zM50.826 22.817v-4.773H37V66h13.826l-.14-30.043C53.899 28.828 62 28.967 62 28.967V18.044c-7.821-.58-11.174 4.773-11.174 4.773M26.466 2.812c2.675 1.877 4.432 4.215 5.274 7.015.84 2.8 1.26 7.155 1.26 13.068v2.992l-13.963.265v-8.249c0-3.2-.158-3.38-.456-4.173-.299-.795-.956-1.192-1.974-1.192-1.15 0-1.879.483-2.189 1.447-.31.966-.455 1.233-.455 4.442v29.42c0 3.078.154 4.336.464 5.275.309.94 1.006 1.408 2.088 1.408 1.04 0 1.72-.47 2.041-1.41.32-.942.481-2.402.481-5.878v-6.856L33 40.209v1.539c0 6.556-.392 11.207-1.177 13.949-.786 2.743-2.522 5.145-5.208 7.208C23.93 64.97 20.617 66 16.682 66c-4.09 0-7.462-.874-10.115-2.62-2.654-1.749-4.412-4.166-5.274-7.259C.431 53.031 0 48.382 0 42.174V23.67c0-4.565.133-7.987.398-10.271.265-2.281 1.056-4.478 2.372-6.591 1.315-2.115 3.138-3.777 5.472-4.99C10.573.607 13.255 0 16.285 0c4.112 0 7.506.938 10.181 2.812z"/></g></symbol><symbol id="nav-logo" viewBox="0 0 100 130"><g stroke-width="0" fill-rule="evenodd"><path d="M0 0h100v100.018l-49.47 29.149L0 100.017z"/><path d="M76.64 54.314H64.476L51.198 75.938 37.921 54.314H25.755L44.399 84.68c-13.027-3.083-22.74-14.656-22.74-28.43 0-15.567 12.402-28.328 27.978-29.192l-9.888 5.887-8.913 5.3 20.362 33.163 6.083-9.907-5.702-9.287 9.063-5.397-4.837-7.896-9.07 5.401-2.141-3.485L58.258 32.7l-3.353-5.471a29.75 29.75 0 0 1 19.882 11.165l8.963-5.337c-7.284-9.88-19.091-16.31-32.43-16.31-22.13 0-40.07 17.685-40.07 39.503 0 21.776 17.873 39.433 39.946 39.5 13.463.003 25.27-6.427 32.554-16.307l-8.963-5.338a29.753 29.753 0 0 1-16.83 10.64l18.684-30.43z" fill="#FFF"/></g></symbol></svg>