<?xml version="1.0" encoding="UTF-8"?><!DOCTYPE svg PUBLIC "-//W3C//DTD SVG 1.1//EN" "http://www.w3.org/Graphics/SVG/1.1/DTD/svg11.dtd"><svg xmlns="http://www.w3.org/2000/svg"><symbol id="chevron-left" viewBox="0 0 41 76"><path d="M6.243 38L40.828 3.414 38 .586.586 38 38 75.414l2.828-2.828z" fill-rule="nonzero"/></symbol><symbol id="chevron-right" viewBox="0 0 41 76"><path d="M.586 3.414L3.414.586 40.828 38 3.414 75.414.586 72.586 35.172 38z" fill-rule="nonzero"/></symbol><symbol id="facebook" viewBox="0 0 30 65"><path d="M29.96 11.297s-7.595-.757-9.496 2.154c-1.04 1.59-.423 6.248-.515 9.593h10.073c-.852 3.91-1.462 6.562-2.088 9.947h-8.041V65H5.938c.003-9.868-.002-21.38 0-31.884H0V23.044h5.873c.301-7.364.414-14.66 4.072-18.375C14.057.493 17.978.994 29.96.994v10.303z" fill-rule="evenodd"/></symbol><symbol id="hero-logo" viewBox="0 0 364 135"><g fill-rule="evenodd"><path d="M20.952 91.448v-5.472H3.672V134h6.48v-21.888h9.792v-5.472h-9.792V91.448h10.8zm30.016 19.44c0 3.816-.144 7.56-.72 11.304-1.152 7.056-3.672 12.456-11.664 12.456-4.104 0-7.632-1.728-9.648-5.4-2.736-4.968-2.952-14.688-2.952-20.376 0-5.616.144-12.528 2.592-17.64 2.016-4.176 5.256-5.832 9.864-5.832 4.032 0 7.344 1.584 9.432 5.112 2.952 5.112 3.096 14.472 3.096 20.376zm-6.768-1.8c0-4.392 0-9-1.008-13.32-.576-2.592-1.872-4.536-4.752-4.536-1.728 0-2.808.648-3.744 2.016-1.944 2.736-1.944 10.584-1.944 13.968 0 5.04-.144 10.224.648 15.192.504 2.952 1.512 6.264 5.112 6.264 2.304 0 3.672-1.368 4.464-3.456 1.296-3.672 1.224-11.952 1.224-16.128zM80.264 134H73.64l-8.784-22.392V134h-6.48V85.976h8.568c2.592 0 4.824.144 6.984 1.8 3.24 2.448 4.104 6.912 4.104 10.728 0 4.68-1.296 10.872-6.912 12.168L80.264 134zM64.856 91.304v15.984c1.656 0 3.384-.072 4.68-1.152 1.8-1.512 2.232-4.248 2.232-6.48 0-1.944-.288-4.608-1.296-6.336-1.08-1.8-2.664-2.016-4.536-2.016h-1.08zm38.584.36v-5.688H82.416v5.688h7.344V134h6.336V91.664h7.344zm42.32-5.688L136.328 134h-5.112l-9.288-48.024h6.408c1.512 9.288 3.024 18.576 4.392 27.936.432 2.736.864 5.472 1.152 8.208.144-2.592.648-5.184 1.08-7.776.576-3.528 1.008-7.128 1.656-10.656l3.096-17.712h6.048zM171.312 134h-6.408l-1.8-9.36H153.6l-1.8 9.36h-6.264l10.44-48.024h5.112L171.312 134zm-16.776-14.328h7.632c-1.44-8.064-2.88-16.2-3.744-24.336-.792 8.208-2.376 16.272-3.888 24.336zM198.448 134V85.976h-6.48v18.216c0 6.12.72 12.24 1.512 18.288-2.952-12.456-7.272-24.408-11.376-36.504h-6.048V134h6.408c-.144-9.864-.216-19.8-.792-29.664-.144-2.448-.216-4.896-.576-7.272.648 2.376 1.008 4.824 1.584 7.2.504 2.016 1.152 3.96 1.8 5.904 2.52 7.992 5.256 15.912 7.92 23.832h6.048zm27.064-6.624c-1.296.648-2.376.936-3.816.936-8.64 0-9.144-11.592-9.144-17.856 0-6.12.072-19.08 8.784-19.08 1.512 0 2.88.504 4.176 1.224v-5.832c-1.944-1.08-3.168-1.44-5.4-1.44-13.176 0-14.4 15.624-14.4 25.488 0 9.864 1.728 23.832 14.544 23.832 2.232 0 3.312-.216 5.256-1.368v-5.904zm30.016-16.488c0 3.816-.144 7.56-.72 11.304-1.152 7.056-3.672 12.456-11.664 12.456-4.104 0-7.632-1.728-9.648-5.4-2.736-4.968-2.952-14.688-2.952-20.376 0-5.616.144-12.528 2.592-17.64 2.016-4.176 5.256-5.832 9.864-5.832 4.032 0 7.344 1.584 9.432 5.112 2.952 5.112 3.096 14.472 3.096 20.376zm-6.768-1.8c0-4.392 0-9-1.008-13.32-.576-2.592-1.872-4.536-4.752-4.536-1.728 0-2.808.648-3.744 2.016-1.944 2.736-1.944 10.584-1.944 13.968 0 5.04-.144 10.224.648 15.192.504 2.952 1.512 6.264 5.112 6.264 2.304 0 3.672-1.368 4.464-3.456 1.296-3.672 1.224-11.952 1.224-16.128zm36.28-23.112h-6.336v35.28c0 3.6.144 7.272-4.608 7.272-4.536 0-4.824-3.744-4.824-7.272v-35.28h-6.336v35.496c0 7.704 2.16 13.176 10.944 13.176 9.36 0 11.16-5.112 11.16-13.392v-35.28zm28.36 0h-6.048l-3.096 17.712c-.648 3.528-1.08 7.128-1.656 10.656-.432 2.592-.936 5.184-1.08 7.776-.288-2.736-.72-5.472-1.152-8.208-1.368-9.36-2.88-18.648-4.392-27.936h-6.408L298.856 134h5.112l9.432-48.024zM335.136 134v-5.472h-10.728v-16.344h9.504v-5.472h-9.504V91.448h10.728v-5.472h-17.208V134h17.208zm28.792 0h-6.624l-8.784-22.392V134h-6.48V85.976h8.568c2.592 0 4.824.144 6.984 1.8 3.24 2.448 4.104 6.912 4.104 10.728 0 4.68-1.296 10.872-6.912 12.168L363.928 134zM348.52 91.304v15.984c1.656 0 3.384-.072 4.68-1.152 1.8-1.512 2.232-4.248 2.232-6.48 0-1.944-.288-4.608-1.296-6.336-1.08-1.8-2.664-2.016-4.536-2.016h-1.08zM250 18.587h-6.315V10h-13.408v8.587H225v9.639h5.277v28.38s-.086 10.844 19.723 9.23V55.081s-6.228.539-6.228-.985l-.087-25.87H250v-9.64zM207 64h12V18h-12zM207 12h12V2h-12zM175 66h14.588V39.12h10.734V26.945h-10.734V14.808H204V2h-29zM158.348 38.107c-3.278-1.512-5.445-2.664-6.5-3.455-1.056-.791-1.688-1.52-1.9-2.183-.21-.663-.317-1.705-.317-3.123 0-1.05.212-1.833.634-2.357.423-.524 1.054-.787 1.9-.787 1.042 0 1.694.286 1.954.856.26.571.393 1.927.393 4.067v2.515h13.335v-2.69c0-2.325-.133-4.036-.392-5.131-.262-1.094-1.006-2.28-2.235-3.56-1.23-1.28-2.993-2.31-5.288-3.09-2.298-.78-5.086-1.169-8.363-1.169-3.304 0-6.202.476-8.697 1.431-2.495.953-4.266 2.31-5.307 4.067-1.044 1.757-1.565 4.486-1.565 8.187 0 2.606.483 4.857 1.453 6.754.968 1.898 3.663 4.01 8.084 6.337 5.262 2.746 8.179 4.399 8.75 4.956.545.559.82 1.944.82 4.155 0 1.605-.211 2.658-.633 3.16-.424.5-1.167.75-2.235.75-.993 0-1.658-.372-1.993-1.118-.335-.744-.502-2.36-.502-4.85v-2.934H136.41v2.234c0 3.864.51 6.75 1.527 8.657 1.018 1.91 2.888 3.422 5.607 4.54 2.718 1.116 5.99 1.674 9.814 1.674 3.45 0 6.4-.518 8.844-1.553 2.448-1.035 4.191-2.514 5.236-4.433 1.042-1.92 1.563-4.765 1.563-8.535 0-3.374-.683-5.947-2.049-7.716-1.366-1.77-4.232-3.653-8.603-5.656M122.348 38.107c-3.278-1.512-5.444-2.664-6.499-3.455-1.056-.791-1.688-1.52-1.9-2.183-.212-.663-.317-1.705-.317-3.123 0-1.05.211-1.833.634-2.357.423-.524 1.054-.787 1.9-.787 1.042 0 1.694.286 1.954.856.261.571.392 1.927.392 4.067v2.515h13.335v-2.69c0-2.325-.133-4.036-.392-5.131-.262-1.094-1.006-2.28-2.235-3.56-1.23-1.28-2.992-2.31-5.288-3.09-2.3-.78-5.086-1.169-8.363-1.169-3.303 0-6.201.476-8.696 1.431-2.496.953-4.266 2.31-5.308 4.067-1.043 1.757-1.565 4.486-1.565 8.187 0 2.606.485 4.857 1.454 6.754.968 1.898 3.661 4.01 8.082 6.337 5.263 2.746 8.18 4.399 8.752 4.956.546.559.82 1.944.82 4.155 0 1.605-.212 2.658-.634 3.16-.423.5-1.167.75-2.234.75-.993 0-1.658-.372-1.993-1.118-.335-.744-.503-2.36-.503-4.85v-2.934h-13.335v2.234c0 3.864.51 6.75 1.528 8.657 1.017 1.91 2.887 3.422 5.606 4.54 2.718 1.116 5.99 1.674 9.813 1.674 3.451 0 6.4-.518 8.845-1.553 2.448-1.035 4.192-2.514 5.236-4.433 1.042-1.92 1.563-4.765 1.563-8.535 0-3.374-.682-5.947-2.049-7.716-1.366-1.77-4.232-3.653-8.603-5.656M82.602 52.98c0 2-.136 3.305-.41 3.91-.274.605-.837.907-1.693.907-.831 0-1.39-.33-1.674-.995-.284-.663-.429-2.089-.429-4.277v-20.91c0-2.374.145-3.869.429-4.485.284-.618.854-.927 1.711-.927.855 0 1.412.31 1.673.927.262.616.393 2.111.393 4.485V52.98zm11.12-29.884c-1.261-1.512-3.048-2.74-5.364-3.683C86.041 18.471 83.266 18 80.036 18c-3.848 0-7.008.733-9.479 2.2-2.47 1.466-4.182 3.409-5.131 5.83C64.476 28.45 64 31.813 64 36.118v11.869c0 3.933.262 6.883.785 8.85.52 1.966 1.394 3.642 2.619 5.026 1.223 1.386 2.94 2.422 5.148 3.107 2.21.687 4.907 1.03 8.092 1.03 2.85 0 5.373-.4 7.572-1.204 2.196-.803 3.996-2.047 5.398-3.735 1.401-1.688 2.317-3.503 2.744-5.445.427-1.945.642-4.999.642-9.165V35.106c0-3.28-.233-5.725-.695-7.332-.464-1.605-1.325-3.164-2.584-4.678zM50.826 22.817v-4.773H37V66h13.826l-.14-30.043C53.899 28.828 62 28.967 62 28.967V18.044c-7.821-.58-11.174 4.773-11.174 4.773M26.466 2.812c2.675 1.877 4.432 4.215 5.274 7.015.84 2.8 1.26 7.155 1.26 13.068v2.992l-13.963.265v-8.249c0-3.2-.158-3.38-.456-4.173-.299-.795-.956-1.192-1.974-1.192-1.15 0-1.879.483-2.189 1.447-.31.966-.455 1.233-.455 4.442v29.42c0 3.078.154 4.336.464 5.275.309.94 1.006 1.408 2.088 1.408 1.04 0 1.72-.47 2.041-1.41.32-.942.481-2.402.481-5.878v-6.856L33 40.209v1.539c0 6.556-.392 11.207-1.177 13.949-.786 2.743-2.522 5.145-5.208 7.208C23.93 64.97 20.617 66 16.682 66c-4.09 0-7.462-.874-10.115-2.62-2.654-1.749-4.412-4.166-5.274-7.259C.431 53.031 0 48.382 0 42.174V23.67c0-4.565.133-7.987.398-10.271.265-2.281 1.056-4.478 2.372-6.591 1.315-2.115 3.138-3.777 5.472-4.99C10.573.607 13.255 0 16.285 0c4.112 0 7.506.938 10.181 2.812z"/></g></symbol><symbol id="instagram" viewBox="0 0 64 64"><g fill-rule="evenodd"><path d="M58.03 44.856c-.143 3.106-.664 4.793-1.102 5.915-.58 1.487-1.274 2.548-2.393 3.663-1.12 1.115-2.185 1.805-3.678 2.383-1.128.436-2.822.955-5.94 1.097-3.373.153-4.385.186-12.927.186s-9.554-.033-12.927-.186c-3.119-.142-4.813-.66-5.94-1.097-1.493-.578-2.559-1.268-3.678-2.383-1.12-1.115-1.813-2.176-2.393-3.663-.438-1.122-.96-2.81-1.102-5.915-.154-3.36-.186-4.367-.186-12.873s.032-9.514.186-12.873c.143-3.106.664-4.793 1.102-5.915.58-1.487 1.274-2.548 2.393-3.663 1.12-1.115 2.185-1.805 3.678-2.383 1.127-.436 2.821-.955 5.94-1.097 3.373-.153 4.385-.186 12.927-.186s9.553.033 12.926.186c3.12.142 4.813.66 5.94 1.097 1.494.578 2.56 1.268 3.679 2.383 1.12 1.115 1.813 2.176 2.393 3.663.438 1.122.959 2.81 1.101 5.915.154 3.36.187 4.367.187 12.873s-.033 9.514-.187 12.873m5.758-26.007c-.155-3.391-.696-5.707-1.487-7.733-.817-2.095-1.911-3.872-3.69-5.643-1.778-1.77-3.562-2.86-5.665-3.674-2.035-.788-4.36-1.326-7.766-1.48C41.767.162 40.678.125 31.99.125c-8.687 0-9.776.037-13.188.192-3.406.155-5.73.693-7.766 1.48-2.103.815-3.887 1.904-5.666 3.675-1.778 1.771-2.872 3.548-3.69 5.643C.89 13.142.348 15.458.192 18.849.037 22.246 0 23.33 0 31.983c0 8.652.037 9.737.192 13.134.156 3.391.697 5.707 1.487 7.733.818 2.095 1.912 3.872 3.69 5.643 1.779 1.77 3.563 2.86 5.666 3.674 2.035.788 4.36 1.326 7.766 1.48 3.412.156 4.5.193 13.189.193 8.688 0 9.777-.037 13.19-.192 3.404-.155 5.73-.693 7.765-1.48 2.103-.815 3.887-1.904 5.666-3.675 1.778-1.771 2.872-3.548 3.69-5.643.79-2.026 1.33-4.342 1.486-7.733.156-3.397.193-4.482.193-13.134 0-8.652-.037-9.737-.193-13.134"/><path d="M31.99 42.602c-5.89 0-10.663-4.754-10.663-10.619S26.1 21.364 31.99 21.364s10.663 4.754 10.663 10.619S37.88 42.602 31.99 42.602m0-26.978c-9.073 0-16.427 7.324-16.427 16.359 0 9.035 7.354 16.359 16.427 16.359 9.072 0 16.427-7.324 16.427-16.359 0-9.035-7.355-16.359-16.427-16.359M49.066 11.155a3.83 3.83 0 0 0-3.839 3.823 3.83 3.83 0 0 0 3.84 3.823 3.83 3.83 0 0 0 3.838-3.823 3.83 3.83 0 0 0-3.839-3.823"/></g></symbol><symbol id="nav-logo" viewBox="0 0 100 130"><g stroke-width="0" fill-rule="evenodd"><path d="M0 0h100v100.018l-49.47 29.149L0 100.017z"/><path d="M76.64 54.314H64.476L51.198 75.938 37.921 54.314H25.755L44.399 84.68c-13.027-3.083-22.74-14.656-22.74-28.43 0-15.567 12.402-28.328 27.978-29.192l-9.888 5.887-8.913 5.3 20.362 33.163 6.083-9.907-5.702-9.287 9.063-5.397-4.837-7.896-9.07 5.401-2.141-3.485L58.258 32.7l-3.353-5.471a29.75 29.75 0 0 1 19.882 11.165l8.963-5.337c-7.284-9.88-19.091-16.31-32.43-16.31-22.13 0-40.07 17.685-40.07 39.503 0 21.776 17.873 39.433 39.946 39.5 13.463.003 25.27-6.427 32.554-16.307l-8.963-5.338a29.753 29.753 0 0 1-16.83 10.64l18.684-30.43z" fill="#FFF"/></g></symbol><symbol id="triib" viewBox="0 0 80 90"><g fill-rule="evenodd"><path d="M59.352 10L45.25 18.019l20.648 11.736v6.68L40 51.176l.015 15.952 25.882-14.734V75l12.061-6.858A3.997 3.997 0 0 0 80 64.672V24.038c0-1.43-.778-2.751-2.043-3.47L59.352 10z"/><path d="M13.87 53.673V30.23l5.725-3.343L45.113 41.39l13.782-8.064-25.502-14.495L52.98 7.395 41.126.623a4 4 0 0 0-4.002.02L1.997 21.151A4.032 4.032 0 0 0 0 24.637l.007 21.118 13.861 7.918z"/><path d="M39.536 74.353L33.74 70.99l-.256-29.914L19.538 33l.255 29.897L0 51.41l.093 13.917a4.105 4.105 0 0 0 2.032 3.526l35.509 20.605a3.995 3.995 0 0 0 4.032-.008L60 78.706l-.109-16.273-20.355 11.92z"/></g></symbol><symbol id="twitter" viewBox="0 0 64 52"><path d="M53.91 4.123c2.195-.188 5.047-1.415 6.727-2.267L62.27.961c-.959 2.594-2.26 4.623-4.26 6.164-.444.342-.885.804-1.441 1.022 2.849.002 5.199-1.283 7.431-1.98-1.172 1.896-2.759 3.786-4.452 5.142l-2.05 1.628c.037 3.017-.045 5.896-.609 8.431-3.279 14.738-11.968 24.744-25.722 29.03-4.939 1.539-12.92 2.172-18.578.766-2.807-.696-5.341-1.482-7.72-2.522a30.903 30.903 0 0 1-3.716-1.916L0 46.023c1.276.038 2.77.39 4.196.16 1.291-.209 2.557-.154 3.748-.415 2.97-.652 5.608-1.514 7.88-2.843 1.101-.644 2.773-1.402 3.556-2.331-1.476.026-2.813-.316-3.908-.703-4.248-1.5-6.72-4.257-8.329-8.399 1.287.14 4.995.476 5.862-.255-1.62-.09-3.178-1.028-4.292-1.725-3.417-2.138-6.203-5.724-6.182-11.241l1.345.638c.858.362 1.731.556 2.755.767.432.089 1.297.343 1.793.159-.725-.769-1.802-1.282-2.466-2.107-2.192-2.725-4.246-6.918-2.947-11.912.33-1.267.853-2.386 1.41-3.418.319.567.888.959 1.249 1.406 1.119 1.387 2.5 2.635 3.908 3.736 4.794 3.75 9.112 6.054 16.048 7.76 1.759.433 3.792.764 5.894.767-.591-1.719-.401-4.5.064-6.164 1.168-4.183 3.707-7.198 7.431-8.814.891-.386 1.878-.668 2.915-.894l1.602-.192c5.085-.09 7.792 1.763 10.378 4.12z" fill-rule="evenodd"/></symbol></svg>