<?xml version="1.0" encoding="UTF-8"?>
<svg width="300px" height="107px" xmlns="http://www.w3.org/2000/svg" viewBox="0 0 300 107.54">
  <defs>
    <style>.a{fill:#139648;}</style>
  </defs>
  <title>ThankYou-Artboard 1</title>
  <path class="a" d="M163.91,92.33l24.86-41.06H172.58L154.92,80.45,137.26,51.27H121.07l24.8,41a39.46,39.46,0,0,1,7-77.76l-13.15,8h0l-11.86,7.15,27.09,44.75L163,61l-7.58-12.53,12-7.28-6.43-10.66L149,37.78l-2.85-4.7,18.18-11-4.46-7.39A39.45,39.45,0,0,1,186.3,29.78l11.93-7.2a53.31,53.31,0,1,0-43.31,84.6h.16a53.24,53.24,0,0,0,43.15-22L186.3,78A39.45,39.45,0,0,1,163.91,92.33Z"></path>
</svg>
